<svg width="512" height="512" viewBox="0 0 512 512" fill="none" xmlns="http://www.w3.org/2000/svg">
<g filter="url(#filter0_d_117_57)">
<path d="M152.66 352.01H156.29L218.99 155H246.38L168.83 386H136.82L57.62 155H87.65L152.66 352.01ZM401.681 232.55L404.981 201.2H403.331L387.491 229.58L353.831 286.01H345.581L310.271 229.25L295.091 201.2H293.441L297.401 232.22V386H270.671V155H296.081L350.861 242.78H351.521L404.321 155H429.071V386H401.681V232.55Z" fill="#613182"/>
<path d="M152.66 352.01L148.861 353.263L149.768 356.01H152.66V352.01ZM156.29 352.01V356.01H159.215L160.102 353.223L156.29 352.01ZM218.99 155V151H216.065L215.178 153.787L218.99 155ZM246.38 155L250.172 156.273L251.942 151H246.38V155ZM168.83 386V390H171.707L172.622 387.273L168.83 386ZM136.82 386L133.036 387.297L133.963 390H136.82V386ZM57.62 155V151H52.02L53.8362 156.297L57.62 155ZM87.65 155L91.4485 153.747L90.5422 151H87.65V155ZM152.66 352.01L156.459 350.757L151.041 334.339L147.243 335.592L143.444 336.846L148.861 353.263L152.66 352.01ZM136.408 302.757L140.206 301.504L129.371 268.669L125.573 269.922L121.774 271.176L132.609 304.011L136.408 302.757ZM114.738 237.087L118.536 235.834L107.701 202.999L103.902 204.252L100.104 205.506L110.939 238.341L114.738 237.087ZM93.0675 171.417L96.866 170.164L91.4485 153.747L87.65 155L83.8515 156.253L89.269 172.671L93.0675 171.417ZM87.65 155V151H80.1425V155V159H87.65V155ZM65.1275 155V151H57.62V155V159H65.1275V155ZM57.62 155L53.8362 156.297L58.7862 170.735L62.57 169.437L66.3538 168.14L61.4038 153.703L57.62 155ZM72.47 198.312L68.6862 199.61L78.5862 228.485L82.37 227.187L86.1538 225.89L76.2538 197.015L72.47 198.312ZM92.27 256.062L88.4862 257.36L98.3862 286.235L102.17 284.937L105.954 283.64L96.0538 254.765L92.27 256.062ZM112.07 313.812L108.286 315.11L118.186 343.985L121.97 342.687L125.754 341.39L115.854 312.515L112.07 313.812ZM131.87 371.562L128.086 372.86L133.036 387.297L136.82 386L140.604 384.703L135.654 370.265L131.87 371.562ZM136.82 386V390H144.823V386V382H136.82V386ZM160.828 386V390H168.83V386V382H160.828V386ZM168.83 386L172.622 387.273L177.469 372.836L173.677 371.562L169.885 370.289L165.038 384.727L168.83 386ZM183.371 342.687L187.163 343.961L196.856 315.086L193.064 313.812L189.272 312.539L179.579 341.414L183.371 342.687ZM202.758 284.937L206.55 286.211L216.244 257.336L212.452 256.062L208.66 254.789L198.966 283.664L202.758 284.937ZM222.146 227.187L225.938 228.461L235.631 199.586L231.839 198.312L228.047 197.039L218.354 225.914L222.146 227.187ZM241.533 169.437L245.325 170.711L250.172 156.273L246.38 155L242.588 153.727L237.741 168.164L241.533 169.437ZM246.38 155V151H239.533V155V159H246.38V155ZM225.838 155V151H218.99V155V159H225.838V155ZM218.99 155L215.178 153.787L209.953 170.204L213.765 171.417L217.577 172.631L222.802 156.213L218.99 155ZM203.315 204.252L199.503 203.039L189.053 235.874L192.865 237.087L196.677 238.301L207.127 205.466L203.315 204.252ZM182.415 269.922L178.603 268.709L168.153 301.544L171.965 302.757L175.777 303.971L186.227 271.136L182.415 269.922ZM161.515 335.592L157.703 334.379L152.478 350.797L156.29 352.01L160.102 353.223L165.327 336.806L161.515 335.592ZM156.29 352.01V348.01H155.383V352.01V356.01H156.29V352.01ZM153.568 352.01V348.01H152.66V352.01V356.01H153.568V352.01ZM401.681 232.55L397.703 232.131L397.681 232.34V232.55H401.681ZM404.981 201.2L408.959 201.619L409.424 197.2H404.981V201.2ZM403.331 201.2V197.2H400.983L399.838 199.251L403.331 201.2ZM387.491 229.58L390.926 231.629L390.956 231.58L390.984 231.529L387.491 229.58ZM353.831 286.01V290.01H356.103L357.266 288.059L353.831 286.01ZM345.581 286.01L342.185 288.123L343.359 290.01H345.581V286.01ZM310.271 229.25L306.753 231.154L306.811 231.26L306.875 231.363L310.271 229.25ZM295.091 201.2L298.609 199.296L297.475 197.2H295.091V201.2ZM293.441 201.2V197.2H288.898L289.473 201.707L293.441 201.2ZM297.401 232.22H301.401V231.966L301.369 231.713L297.401 232.22ZM297.401 386V390H301.401V386H297.401ZM270.671 386H266.671V390H270.671V386ZM270.671 155V151H266.671V155H270.671ZM296.081 155L299.475 152.882L298.3 151H296.081V155ZM350.861 242.78L347.468 244.898L348.642 246.78H350.861V242.78ZM351.521 242.78V246.78H353.783L354.949 244.842L351.521 242.78ZM404.321 155V151H402.059L400.893 152.938L404.321 155ZM429.071 155H433.071V151H429.071V155ZM429.071 386V390H433.071V386H429.071ZM401.681 386H397.681V390H401.681V386ZM401.681 232.55H397.681V251.731H401.681H405.681V232.55H401.681ZM401.681 290.094H397.681V328.456H401.681H405.681V290.094H401.681ZM401.681 366.819H397.681V386H401.681H405.681V366.819H401.681ZM401.681 386V390H408.529V386V382H401.681V386ZM422.224 386V390H429.071V386V382H422.224V386ZM429.071 386H433.071V371.562H429.071H425.071V386H429.071ZM429.071 342.687H433.071V313.812H429.071H425.071V342.687H429.071ZM429.071 284.937H433.071V256.062H429.071H425.071V284.937H429.071ZM429.071 227.187H433.071V198.312H429.071H425.071V227.187H429.071ZM429.071 169.437H433.071V155H429.071H425.071V169.437H429.071ZM429.071 155V151H422.884V155V159H429.071V155ZM410.509 155V151H404.321V155V159H410.509V155ZM404.321 155L400.893 152.938L394.293 163.911L397.721 165.972L401.149 168.034L407.749 157.062L404.321 155ZM384.521 187.917L381.093 185.856L367.893 207.801L371.321 209.862L374.749 211.924L387.949 189.979L384.521 187.917ZM358.121 231.807L354.693 229.746L348.093 240.718L351.521 242.78L354.949 244.842L361.549 233.869L358.121 231.807ZM351.521 242.78V238.78H351.356V242.78V246.78H351.521V242.78ZM351.026 242.78V238.78H350.861V242.78V246.78H351.026V242.78ZM350.861 242.78L354.255 240.662L347.407 229.69L344.014 231.807L340.62 233.925L347.468 244.898L350.861 242.78ZM330.319 209.862L333.712 207.745L320.017 185.8L316.624 187.917L313.23 190.035L326.925 211.98L330.319 209.862ZM302.929 165.972L306.322 163.855L299.475 152.882L296.081 155L292.688 157.118L299.535 168.09L302.929 165.972ZM296.081 155V151H289.729V155V159H296.081V155ZM277.024 155V151H270.671V155V159H277.024V155ZM270.671 155H266.671V169.437H270.671H274.671V155H270.671ZM270.671 198.312H266.671V227.187H270.671H274.671V198.312H270.671ZM270.671 256.062H266.671V284.937H270.671H274.671V256.062H270.671ZM270.671 313.812H266.671V342.687H270.671H274.671V313.812H270.671ZM270.671 371.562H266.671V386H270.671H274.671V371.562H270.671ZM270.671 386V390H277.354V386V382H270.671V386ZM290.719 386V390H297.401V386V382H290.719V386ZM297.401 386H301.401V366.777H297.401H293.401V386H297.401ZM297.401 328.332H301.401V289.888H297.401H293.401V328.332H297.401ZM297.401 251.442H301.401V232.22H297.401H293.401V251.442H297.401ZM297.401 232.22L301.369 231.713L300.379 223.958L296.411 224.465L292.443 224.972L293.433 232.727L297.401 232.22ZM294.431 208.955L298.399 208.448L297.409 200.693L293.441 201.2L289.473 201.707L290.463 209.462L294.431 208.955ZM293.441 201.2V205.2H293.854V201.2V197.2H293.441V201.2ZM294.679 201.2V205.2H295.091V201.2V197.2H294.679V201.2ZM295.091 201.2L291.573 203.104L295.368 210.116L298.886 208.212L302.404 206.309L298.609 199.296L295.091 201.2ZM306.476 222.237L302.958 224.141L306.753 231.154L310.271 229.25L313.789 227.346L309.994 220.334L306.476 222.237ZM310.271 229.25L306.875 231.363L315.702 245.553L319.099 243.44L322.495 241.327L313.668 227.137L310.271 229.25ZM336.754 271.82L333.357 273.933L342.185 288.123L345.581 286.01L348.978 283.897L340.15 269.707L336.754 271.82ZM345.581 286.01V290.01H347.644V286.01V282.01H345.581V286.01ZM351.769 286.01V290.01H353.831V286.01V282.01H351.769V286.01ZM353.831 286.01L357.266 288.059L365.681 273.952L362.246 271.902L358.811 269.853L350.396 283.961L353.831 286.01ZM379.076 243.687L382.511 245.737L390.926 231.629L387.491 229.58L384.056 227.531L375.641 241.638L379.076 243.687ZM387.491 229.58L390.984 231.529L394.944 224.434L391.451 222.485L387.958 220.536L383.998 227.631L387.491 229.58ZM399.371 208.295L402.864 210.244L406.824 203.149L403.331 201.2L399.838 199.251L395.878 206.346L399.371 208.295ZM403.331 201.2V205.2H403.744V201.2V197.2H403.331V201.2ZM404.569 201.2V205.2H404.981V201.2V197.2H404.569V201.2ZM404.981 201.2L401.003 200.781L400.178 208.619L404.156 209.037L408.134 209.456L408.959 201.619L404.981 201.2ZM402.506 224.712L398.528 224.294L397.703 232.131L401.681 232.55L405.659 232.969L406.484 225.131L402.506 224.712Z" fill="#613182"/>
</g>
<defs>
<filter id="filter0_d_117_57" x="48.02" y="151" width="389.051" height="247" filterUnits="userSpaceOnUse" color-interpolation-filters="sRGB">
<feFlood flood-opacity="0" result="BackgroundImageFix"/>
<feColorMatrix in="SourceAlpha" type="matrix" values="0 0 0 0 0 0 0 0 0 0 0 0 0 0 0 0 0 0 127 0" result="hardAlpha"/>
<feOffset dy="4"/>
<feGaussianBlur stdDeviation="2"/>
<feComposite in2="hardAlpha" operator="out"/>
<feColorMatrix type="matrix" values="0 0 0 0 0 0 0 0 0 0 0 0 0 0 0 0 0 0 0.25 0"/>
<feBlend mode="normal" in2="BackgroundImageFix" result="effect1_dropShadow_117_57"/>
<feBlend mode="normal" in="SourceGraphic" in2="effect1_dropShadow_117_57" result="shape"/>
</filter>
</defs>
</svg>
